<svg xmlns="http://www.w3.org/2000/svg" width="32" height="32" viewBox="0 0 32 32" fill="none">
    <rect width="32" height="32" rx="8" fill="#4F46E5"/>
    <path d="M22 10H10C9.44772 10 9 10.4477 9 11V13C9 14.6569 10.3431 16 12 16C12.3506 16 12.6872 15.9398 13 15.8293C13.3128 15.9398 13.6494 16 14 16C14.3506 16 14.6872 15.9398 15 15.8293C15.3128 15.9398 15.6494 16 16 16C16.3506 16 16.6872 15.9398 17 15.8293C17.3128 15.9398 17.6494 16 18 16C18.3506 16 18.6872 15.9398 19 15.8293C19.3128 15.9398 19.6494 16 20 16C21.6569 16 23 14.6569 23 13V11C23 10.4477 22.5523 10 22 10Z"
          fill="white"/>
    <path d="M14 16V20M18 16V20M12 20H20C20.5523 20 21 20.4477 21 21C21 21.5523 20.5523 22 20 22H12C11.4477 22 11 21.5523 11 21C11 20.4477 11.4477 20 12 20Z"
          stroke="white" stroke-width="2" stroke-linecap="round" stroke-linejoin="round"/>
</svg>

